<svg aria-hidden="true" style="position: absolute; width: 0; height: 0; overflow: hidden;" version="1.1" xmlns="http://www.w3.org/2000/svg" xmlns:xlink="http://www.w3.org/1999/xlink">
<defs>
<symbol id="icon-cut" viewBox="0 0 28 28">
<path d="M15 14c0.547 0 1 0.453 1 1s-0.453 1-1 1-1-0.453-1-1 0.453-1 1-1zM19.688 15l7.922 6.219c0.281 0.203 0.422 0.547 0.391 0.875-0.047 0.344-0.25 0.641-0.547 0.797l-2 1c-0.141 0.078-0.297 0.109-0.453 0.109-0.172 0-0.344-0.047-0.484-0.125l-10.781-6.047-1.719 1.031c-0.063 0.031-0.125 0.063-0.187 0.078 0.141 0.484 0.203 1 0.156 1.516-0.141 1.609-1.219 3.141-2.938 4.234-1.328 0.844-2.859 1.313-4.328 1.313-1.406 0-2.594-0.422-3.469-1.219-0.891-0.828-1.344-2.016-1.234-3.234 0.141-1.594 1.219-3.141 2.922-4.234 1.328-0.844 2.875-1.313 4.344-1.313 0.875 0 1.672 0.172 2.359 0.484 0.094-0.141 0.203-0.25 0.344-0.344l1.906-1.141-1.906-1.141c-0.141-0.094-0.25-0.203-0.344-0.344-0.688 0.313-1.484 0.484-2.359 0.484-1.469 0-3.016-0.469-4.344-1.313-1.703-1.094-2.781-2.641-2.922-4.234-0.109-1.219 0.344-2.406 1.234-3.219 0.875-0.812 2.063-1.234 3.469-1.234 1.469 0 3 0.469 4.328 1.313 1.719 1.078 2.797 2.625 2.938 4.234 0.047 0.516-0.016 1.031-0.156 1.516 0.063 0.016 0.125 0.047 0.187 0.078l1.719 1.031 10.781-6.047c0.141-0.078 0.313-0.125 0.484-0.125 0.156 0 0.313 0.031 0.453 0.109l2 1c0.297 0.156 0.5 0.453 0.547 0.797 0.031 0.328-0.109 0.672-0.391 0.875zM9.047 10.938c0.953-0.875 0.359-2.453-1.328-3.516-0.953-0.609-2.063-0.922-3-0.922-0.719 0-1.359 0.187-1.766 0.562-0.953 0.875-0.359 2.453 1.328 3.516 0.953 0.609 2.047 0.922 3 0.922 0.719 0 1.359-0.187 1.766-0.562zM7.719 22.578c1.687-1.062 2.281-2.641 1.328-3.516-0.406-0.375-1.047-0.562-1.766-0.562-0.953 0-2.047 0.313-3 0.922-1.687 1.062-2.281 2.641-1.328 3.516 0.406 0.375 1.047 0.562 1.766 0.562 0.938 0 2.047-0.313 3-0.922zM10.5 13l1.5 0.906v-0.172c0-0.359 0.203-0.688 0.516-0.875l0.219-0.125-1.234-0.734-0.406 0.406c-0.125 0.125-0.219 0.25-0.344 0.359-0.047 0.047-0.078 0.063-0.109 0.094zM14 16.5l1.5 0.5 11.5-9-2-1-12 6.734v1.766l-2.5 1.5 0.141 0.125c0.031 0.047 0.063 0.063 0.109 0.094 0.125 0.125 0.219 0.25 0.344 0.375l0.406 0.406zM25 23l2-1-8.125-6.375-2.766 2.156c-0.047 0.063-0.125 0.078-0.203 0.109z"></path>
</symbol>
<symbol id="icon-instagram" viewBox="0 0 24 24">
<path d="M7 1c-1.657 0-3.158 0.673-4.243 1.757s-1.757 2.586-1.757 4.243v10c0 1.657 0.673 3.158 1.757 4.243s2.586 1.757 4.243 1.757h10c1.657 0 3.158-0.673 4.243-1.757s1.757-2.586 1.757-4.243v-10c0-1.657-0.673-3.158-1.757-4.243s-2.586-1.757-4.243-1.757zM7 3h10c1.105 0 2.103 0.447 2.828 1.172s1.172 1.723 1.172 2.828v10c0 1.105-0.447 2.103-1.172 2.828s-1.723 1.172-2.828 1.172h-10c-1.105 0-2.103-0.447-2.828-1.172s-1.172-1.723-1.172-2.828v-10c0-1.105 0.447-2.103 1.172-2.828s1.723-1.172 2.828-1.172zM16.989 11.223c-0.15-0.972-0.571-1.857-1.194-2.567-0.754-0.861-1.804-1.465-3.009-1.644-0.464-0.074-0.97-0.077-1.477-0.002-1.366 0.202-2.521 0.941-3.282 1.967s-1.133 2.347-0.93 3.712 0.941 2.521 1.967 3.282 2.347 1.133 3.712 0.93 2.521-0.941 3.282-1.967 1.133-2.347 0.93-3.712zM15.011 11.517c0.122 0.82-0.1 1.609-0.558 2.227s-1.15 1.059-1.969 1.18-1.609-0.1-2.227-0.558-1.059-1.15-1.18-1.969 0.1-1.609 0.558-2.227 1.15-1.059 1.969-1.18c0.313-0.046 0.615-0.042 0.87-0.002 0.74 0.11 1.366 0.47 1.818 0.986 0.375 0.428 0.63 0.963 0.72 1.543zM17.5 7.5c0.552 0 1-0.448 1-1s-0.448-1-1-1-1 0.448-1 1 0.448 1 1 1z"></path>
</symbol>
<symbol id="icon-mail" viewBox="0 0 20 20">
<path d="M1.574 5.286c0.488 0.262 7.248 3.894 7.5 4.029s0.578 0.199 0.906 0.199c0.328 0 0.654-0.064 0.906-0.199s7.012-3.767 7.5-4.029c0.489-0.263 0.951-1.286 0.054-1.286h-16.919c-0.897 0-0.435 1.023 0.053 1.286zM18.613 7.489c-0.555 0.289-7.387 3.849-7.727 4.027s-0.578 0.199-0.906 0.199-0.566-0.021-0.906-0.199-7.133-3.739-7.688-4.028c-0.39-0.204-0.386 0.035-0.386 0.219s0 7.293 0 7.293c0 0.42 0.566 1 1 1h16c0.434 0 1-0.58 1-1 0 0 0-7.108 0-7.292s0.004-0.423-0.387-0.219z"></path>
</symbol>
<symbol id="icon-location" viewBox="0 0 32 32">
<path d="M16 0c-5.523 0-10 4.477-10 10 0 10 10 22 10 22s10-12 10-22c0-5.523-4.477-10-10-10zM16 16c-3.314 0-6-2.686-6-6s2.686-6 6-6 6 2.686 6 6-2.686 6-6 6z"></path>
</symbol>
<symbol id="icon-mobile" viewBox="0 0 32 32">
<path d="M23 0h-14c-1.65 0-3 1.35-3 3v26c0 1.65 1.35 3 3 3h14c1.65 0 3-1.35 3-3v-26c0-1.65-1.35-3-3-3zM12 1.5h8v1h-8v-1zM16 30c-1.105 0-2-0.895-2-2s0.895-2 2-2 2 0.895 2 2-0.895 2-2 2zM24 24h-16v-20h16v20z"></path>
</symbol>
<symbol id="icon-facebook" viewBox="0 0 32 32">
<path d="M19 6h5v-6h-5c-3.86 0-7 3.14-7 7v3h-4v6h4v16h6v-16h5l1-6h-6v-3c0-0.542 0.458-1 1-1z"></path>
</symbol>
</defs>
</svg>
